<?xml version="1.0" encoding="utf-8"?>
<!-- Generator: Adobe Illustrator 21.0.1, SVG Export Plug-In . SVG Version: 6.00 Build 0)  -->
<svg version="1.1" id="Слой_1" xmlns="http://www.w3.org/2000/svg" xmlns:xlink="http://www.w3.org/1999/xlink" x="0px" y="0px"
	 viewBox="0 0 773 146" style="enable-background:new 0 0 773 146;" xml:space="preserve">
<style type="text/css">
	.st0{fill:#1A1A1A;}
	.st1{fill:#919191;}
	.st2{fill:url(#SVGID_1_);}
	.st3{fill:#FFC020;}
</style>
<g>
	<path class="st0" d="M480.4,14.7H463l-24.3,51.1h-19.5l24.1-51.1h-17.4l6.3-13.4h54.4L480.4,14.7z"/>
	<path class="st0" d="M481.6,65.8c-10,0-14.9-6.9-10.9-15.4L494,1.3h19.5l-21.4,45.2c-1.5,3.3,0.3,6,4.2,6H509l24.3-51.2h19.6
		l-30.6,64.5C519,65.8,497.9,65.8,481.6,65.8z"/>
	<path class="st0" d="M581.4,39.2h-2.5l8,26.6H567l-7.3-23.7l-11.2,23.7h-19.6c1.3-2.7,11.9-25,16.7-35.3c1.1-2.2,1.8-3.8,2.2-4.7
		h34c2.9,0,6.2-2,7.4-4.5l1-2.2c1.2-2.5-0.2-4.5-3.2-4.5h-33.9l6.3-13.4h39.8c10,0,14.9,7,10.9,15.4l-3.3,7
		C602.9,32.2,591.4,39.2,581.4,39.2z"/>
	<path class="st0" d="M678.4,12.9l-3.8,8.2c-3,6.3-11.5,11.5-19,11.5c7.5,0,11.1,5.1,8,11.5l-4.8,10.2c-3,6.4-11.6,11.5-19.1,11.5
		c-0.4,0-0.9,0-1.3,0h-4.6c-6.1,0-12.8,0-18.9,0h-19.6c2.2-4.6,10.9-22.9,15.8-33.3c0.9-1.7,1.5-3.3,2.2-4.5c0.4-1,0.8-1.7,1-2.3
		h38.5l5.3-11.1h-38.5l6.3-13.4c4.4,0,28.4,0,44.4,0C677.7,1.3,681.4,6.6,678.4,12.9z M646.4,39.2h-18.9l-6.3,13.4h18.9L646.4,39.2z
		"/>
	<path class="st0" d="M734.9,1.3c10.1,0,15,7,11,15.6L730,50.4c-4.1,8.6-15.6,15.4-25.7,15.4c-5.2,0-15.8,0-25.7,0
		c-4.8,0-8.7-1.6-10.7-4.5c-2.1-2.9-2.2-6.9-0.2-11l15.9-33.6c4.1-8.5,15.6-15.4,25.6-15.4C719.6,1.3,733.6,1.3,734.9,1.3z
		 M702.4,52.6c3.9,0,8.3-2.7,9.9-6l12.2-25.9c1.6-3.4-0.2-6-4.1-6h-9c-3.9,0-8.3,2.6-9.9,6l-12.3,25.9c-1.5,3.3,0.3,6,4.2,6H702.4z"
		/>
	<path class="st1" d="M481,103.6c-4,8.5-15.6,15.4-25.6,15.4h-20.2l-12.6,26.6h-2.1H403l18.9-40h34c2.9,0,6.2-2,7.4-4.5l1-2.2
		c1.2-2.5-0.2-4.5-3.2-4.5h-33.9l6.3-13.4h39.8c10,0,14.9,7,10.9,15.4L481,103.6z"/>
	<path class="st1" d="M521.8,119h-2.5l8,26.6h-19.9l-7.3-23.7l-11.2,23.7h-19.6c1.3-2.7,11.9-25,16.8-35.3c1.1-2.2,1.8-3.8,2.2-4.7
		h34c2.9,0,6.2-2,7.4-4.5l1-2.2c1.2-2.5-0.2-4.5-3.2-4.5h-33.9l6.3-13.4h39.8c10,0,14.9,7,10.9,15.4l-3.3,7
		C543.3,112.1,531.8,119,521.8,119z"/>
	<path class="st1" d="M609.6,81.2c10.1,0,15,7,11,15.6l-15.9,33.5c-4.1,8.6-15.6,15.4-25.7,15.4c-5.2,0-15.8,0-25.7,0
		c-4.8,0-8.7-1.6-10.7-4.5c-2.1-2.9-2.2-6.9-0.2-11l15.9-33.6c4.1-8.5,15.6-15.4,25.6-15.4C594.3,81.2,608.3,81.2,609.6,81.2z
		 M577.1,132.4c3.9,0,8.3-2.7,9.9-6l12.2-25.9c1.6-3.4-0.2-6-4.1-6h-9c-3.9,0-8.3,2.6-9.9,6l-12.3,25.9c-1.5,3.3,0.3,6,4.2,6H577.1z
		"/>
	<path class="st1" d="M649.5,94.5l-5.2,11.1h31.2l-6.3,13.4h-31.2l-12.6,26.6h-19.6l26-54.9l-6.2-9.6h10.8h6.7h10.8h33.3l-6.3,13.4
		H649.5z"/>
	<path class="st1" d="M682.6,145.7c-1.8,0-9.9,0-19.5,0l30.6-64.5h19.5L682.6,145.7z"/>
	<path class="st1" d="M766.7,94.5h-17.4L725,145.7h-19.5l24.1-51.1h-17.4l6.3-13.4H773L766.7,94.5z"/>
</g>
<g>
	<linearGradient id="SVGID_1_" gradientUnits="userSpaceOnUse" x1="370.8603" y1="-23.9422" x2="111.0753" y2="107.9641">
		<stop  offset="0" style="stop-color:#FFE815"/>
		<stop  offset="0.1218" style="stop-color:#FFDF17"/>
		<stop  offset="0.3244" style="stop-color:#FFC51D"/>
		<stop  offset="0.5828" style="stop-color:#FF9C28"/>
		<stop  offset="0.884" style="stop-color:#FF6335"/>
		<stop  offset="0.9944" style="stop-color:#FF4C3B"/>
	</linearGradient>
	<path class="st2" d="M372.1,0.5h-88.4h-1.2H102L78.5,30.6h107.8l-54.3,115h43.8l54.6-115h38h1.2h75.1c6.6,0,9.8,4.4,7.1,10
		l-2.2,4.9c-2.7,5.6-10,10-16.6,10h-76.6l-42.6,90h39.4h4.6l28.4-59.9h45.5c22.5,0,48.4-15.7,57.5-34.7l7.3-15.7
		C405.6,16.1,394.6,0.5,372.1,0.5z"/>
	<polygon class="st3" points="129.9,88.6 37.3,88.6 59.4,58.4 146,58.4 	"/>
	<polygon class="st3" points="100.7,146 0,146 22.2,115.8 116.8,115.8 	"/>
</g>
</svg>
