<svg xmlns="http://www.w3.org/2000/svg" width="20" height="20" viewBox="0 0 20 20"><g><g><path fill="#d0d4d8" d="M20.001 9.999c0 1.815-.447 3.488-1.341 5.02a9.954 9.954 0 0 1-3.64 3.64C13.488 19.553 11.814 20 10 20c-1.815 0-3.488-.448-5.02-1.342a9.956 9.956 0 0 1-3.64-3.64c-.894-1.532-1.342-3.205-1.342-5.02 0-1.814.447-3.488 1.342-5.02a9.955 9.955 0 0 1 3.64-3.64C6.512.444 8.186-.002 10-.002c1.815 0 3.488.446 5.02 1.34a9.96 9.96 0 0 1 3.64 3.64c.894 1.533 1.341 3.206 1.341 5.021zm-2.917 0c0-1.285-.317-2.47-.95-3.555a7.055 7.055 0 0 0-2.579-2.578A6.917 6.917 0 0 0 10 2.915c-1.285 0-2.47.316-3.555.95a7.055 7.055 0 0 0-2.579 2.579 6.925 6.925 0 0 0-.95 3.555c0 1.284.316 2.47.95 3.555a7.066 7.066 0 0 0 2.579 2.579c1.085.633 2.27.95 3.555.95 1.285 0 2.47-.317 3.555-.95a7.065 7.065 0 0 0 2.579-2.579c.633-1.085.95-2.27.95-3.555zm-2.617.117a.405.405 0 0 1 .117.3.488.488 0 0 1-.13.312L10.3 14.883a.467.467 0 0 1-.3.116.467.467 0 0 1-.3-.116l-4.167-4.168c-.13-.139-.16-.291-.09-.456.069-.173.199-.26.39-.26h2.5V5.415c0-.122.04-.221.117-.3a.405.405 0 0 1 .3-.117h2.5a.403.403 0 0 1 .417.417V10h2.5c.122 0 .222.04.3.117z"/></g></g></svg>